HIERARCHY
ROOT Hips
{
	OFFSET 0.053599 88.859886 3.107447
	CHANNELS 6 Xposition Yposition Zposition Zrotation Yrotation Xrotation 
	JOINT Spine
	{
		OFFSET -0.000000 8.814246 -2.080107
		CHANNELS 3 Zrotation Yrotation Xrotation
		JOINT Spine1
		{
			OFFSET 0.000000 8.844141 0.000000
			CHANNELS 3 Zrotation Yrotation Xrotation
			JOINT Spine2
			{
				OFFSET -0.000000 11.682268 0.000000
				CHANNELS 3 Zrotation Yrotation Xrotation
				JOINT Spine3
				{
					OFFSET 0.000000 11.746700 0.000000
					CHANNELS 3 Zrotation Yrotation Xrotation
					JOINT Neck
					{
						OFFSET -0.000000 17.658264 -0.000000
						CHANNELS 3 Zrotation Yrotation Xrotation
						JOINT Neck1
						{
							OFFSET -0.000000 5.101515 -0.000000
							CHANNELS 3 Zrotation Yrotation Xrotation
							JOINT Head
							{
								OFFSET 0.000000 5.101515 0.000000
								CHANNELS 3 Zrotation Yrotation Xrotation
								JOINT HeadEnd
								{
									OFFSET 0.000000 11.655085 0.000000
									CHANNELS 3 Zrotation Yrotation Xrotation
									End Site
									{
										OFFSET 0.000000 0.000000 0.000000
									}
								}
							}
						}
					}
					JOINT RightShoulder
					{
						OFFSET -2.625389 11.175210 0.000000
						CHANNELS 3 Zrotation Yrotation Xrotation
						JOINT RightArm
						{
							OFFSET -0.000000 10.434715 -0.000000
							CHANNELS 3 Zrotation Yrotation Xrotation
							JOINT RightForeArm
							{
								OFFSET -0.000000 29.628420 0.000000
								CHANNELS 3 Zrotation Yrotation Xrotation
								JOINT RightHand
								{
									OFFSET -0.000000 22.857611 0.000000
									CHANNELS 3 Zrotation Yrotation Xrotation
									JOINT RightHandThumb1
									{
										OFFSET -2.867323 3.959563 2.944291
										CHANNELS 3 Zrotation Yrotation Xrotation
										JOINT RightHandThumb2
										{
											OFFSET 0.000000 3.350399 0.000000
											CHANNELS 3 Zrotation Yrotation Xrotation
											JOINT RightHandThumb3
											{
												OFFSET 0.000000 3.756509 -0.000000
												CHANNELS 3 Zrotation Yrotation Xrotation
												JOINT RightHandThumb4
												{
													OFFSET 0.000000 3.147345 0.000000
													CHANNELS 3 Zrotation Yrotation Xrotation
													End Site
													{
														OFFSET 0.000000 0.000000 0.000000
													}
												}
											}
										}
									}
									JOINT RightHandIndex1
									{
										OFFSET -0.086752 10.030893 2.345280
										CHANNELS 3 Zrotation Yrotation Xrotation
										JOINT RightHandIndex2
										{
											OFFSET -0.000000 4.061090 0.000000
											CHANNELS 3 Zrotation Yrotation Xrotation
											JOINT RightHandIndex3
											{
												OFFSET -0.000000 3.248873 0.000000
												CHANNELS 3 Zrotation Yrotation Xrotation
												JOINT RightHandIndex4
												{
													OFFSET 0.000000 2.639709 -0.000000
													CHANNELS 3 Zrotation Yrotation Xrotation
													End Site
													{
														OFFSET 0.000000 0.000000 0.000000
													}
												}
											}
										}
									}
									JOINT RightHandMiddle1
									{
										OFFSET 0.104102 9.502952 0.006768
										CHANNELS 3 Zrotation Yrotation Xrotation
										JOINT RightHandMiddle2
										{
											OFFSET 0.000000 4.568727 0.000000
											CHANNELS 3 Zrotation Yrotation Xrotation
											JOINT RightHandMiddle3
											{
												OFFSET 0.000000 3.654981 -0.000000
												CHANNELS 3 Zrotation Yrotation Xrotation
												JOINT RightHandMiddle4
												{
													OFFSET -0.000000 2.741236 -0.000000
													CHANNELS 3 Zrotation Yrotation Xrotation
													End Site
													{
														OFFSET 0.000000 0.000000 0.000000
													}
												}
											}
										}
									}
									JOINT RightHandRing1
									{
										OFFSET 0.086752 8.921708 -2.267442
										CHANNELS 3 Zrotation Yrotation Xrotation
										JOINT RightHandRing2
										{
											OFFSET -0.000000 4.061090 0.000000
											CHANNELS 3 Zrotation Yrotation Xrotation
											JOINT RightHandRing3
											{
												OFFSET 0.000000 3.654981 -0.000000
												CHANNELS 3 Zrotation Yrotation Xrotation
												JOINT RightHandRing4
												{
													OFFSET 0.000000 2.741236 -0.000000
													CHANNELS 3 Zrotation Yrotation Xrotation
													End Site
													{
														OFFSET 0.000000 0.000000 0.000000
													}
												}
											}
										}
									}
									JOINT RightHandPinky1
									{
										OFFSET -0.173504 7.976997 -4.467199
										CHANNELS 3 Zrotation Yrotation Xrotation
										JOINT RightHandPinky2
										{
											OFFSET 0.000000 3.350399 -0.000000
											CHANNELS 3 Zrotation Yrotation Xrotation
											JOINT RightHandPinky3
											{
												OFFSET -0.000000 2.842763 0.000000
												CHANNELS 3 Zrotation Yrotation Xrotation
												JOINT RightHandPinky4
												{
													OFFSET -0.000000 2.639709 0.000000
													CHANNELS 3 Zrotation Yrotation Xrotation
													End Site
													{
														OFFSET 0.000000 0.000000 0.000000
													}
												}
											}
										}
									}
									JOINT RightForeArmEnd
									{
										OFFSET 0.000000 0.000000 0.000000
										CHANNELS 3 Zrotation Yrotation Xrotation
										End Site
										{
											OFFSET 0.000000 0.000000 0.000000
										}
									}
								}
								JOINT RightArmEnd
								{
									OFFSET 0.000000 0.000000 0.000000
									CHANNELS 3 Zrotation Yrotation Xrotation
									End Site
									{
										OFFSET 0.000000 0.000000 0.000000
									}
								}
							}
						}
					}
					JOINT LeftShoulder
					{
						OFFSET 2.625389 11.175210 0.000000
						CHANNELS 3 Zrotation Yrotation Xrotation
						JOINT LeftArm
						{
							OFFSET 0.000000 10.813635 -0.000000
							CHANNELS 3 Zrotation Yrotation Xrotation
							JOINT LeftForeArm
							{
								OFFSET 0.000000 28.724781 0.000000
								CHANNELS 3 Zrotation Yrotation Xrotation
								JOINT LeftHand
								{
									OFFSET 0.644384 25.716167 -0.328871
									CHANNELS 3 Zrotation Yrotation Xrotation
									JOINT LeftHandThumb1
									{
										OFFSET 2.867323 3.959563 2.944291
										CHANNELS 3 Zrotation Yrotation Xrotation
										JOINT LeftHandThumb2
										{
											OFFSET 0.000000 3.350399 0.000000
											CHANNELS 3 Zrotation Yrotation Xrotation
											JOINT LeftHandThumb3
											{
												OFFSET -0.000000 3.756509 0.000000
												CHANNELS 3 Zrotation Yrotation Xrotation
												JOINT LeftHandThumb4
												{
													OFFSET -0.000000 3.100000 0.000000
													CHANNELS 3 Zrotation Yrotation Xrotation
													End Site
													{
														OFFSET 0.000000 0.000000 0.000000
													}
												}
											}
										}
									}
									JOINT LeftHandIndex1
									{
										OFFSET 0.086752 10.030893 2.345280
										CHANNELS 3 Zrotation Yrotation Xrotation
										JOINT LeftHandIndex2
										{
											OFFSET -0.000000 4.061090 -0.000000
											CHANNELS 3 Zrotation Yrotation Xrotation
											JOINT LeftHandIndex3
											{
												OFFSET 0.000000 3.248873 -0.000000
												CHANNELS 3 Zrotation Yrotation Xrotation
												JOINT LeftHandIndex4
												{
													OFFSET 0.000000 2.639709 -0.000000
													CHANNELS 3 Zrotation Yrotation Xrotation
													End Site
													{
														OFFSET 0.000000 0.000000 0.000000
													}
												}
											}
										}
									}
									JOINT LeftHandMiddle1
									{
										OFFSET -0.104102 9.502952 0.006768
										CHANNELS 3 Zrotation Yrotation Xrotation
										JOINT LeftHandMiddle2
										{
											OFFSET -0.000000 4.568727 -0.000000
											CHANNELS 3 Zrotation Yrotation Xrotation
											JOINT LeftHandMiddle3
											{
												OFFSET 0.000000 3.654981 0.000000
												CHANNELS 3 Zrotation Yrotation Xrotation
												JOINT LeftHandMiddle4
												{
													OFFSET 0.000000 2.741236 -0.000000
													CHANNELS 3 Zrotation Yrotation Xrotation
													End Site
													{
														OFFSET 0.000000 0.000000 0.000000
													}
												}
											}
										}
									}
									JOINT LeftHandRing1
									{
										OFFSET -0.086752 8.921708 -2.267442
										CHANNELS 3 Zrotation Yrotation Xrotation
										JOINT LeftHandRing2
										{
											OFFSET 0.000000 4.061090 0.000000
											CHANNELS 3 Zrotation Yrotation Xrotation
											JOINT LeftHandRing3
											{
												OFFSET 0.000000 3.654981 0.000000
												CHANNELS 3 Zrotation Yrotation Xrotation
												JOINT LeftHandRing4
												{
													OFFSET 0.000000 2.741236 0.000000
													CHANNELS 3 Zrotation Yrotation Xrotation
													End Site
													{
														OFFSET 0.000000 0.000000 0.000000
													}
												}
											}
										}
									}
									JOINT LeftHandPinky1
									{
										OFFSET 0.173504 7.976997 -4.467199
										CHANNELS 3 Zrotation Yrotation Xrotation
										JOINT LeftHandPinky2
										{
											OFFSET -0.000000 3.350399 -0.000000
											CHANNELS 3 Zrotation Yrotation Xrotation
											JOINT LeftHandPinky3
											{
												OFFSET 0.000000 2.842763 0.000000
												CHANNELS 3 Zrotation Yrotation Xrotation
												JOINT LeftHandPinky4
												{
													OFFSET -0.000000 2.639709 -0.000000
													CHANNELS 3 Zrotation Yrotation Xrotation
													End Site
													{
														OFFSET 0.000000 0.000000 0.000000
													}
												}
											}
										}
									}
									JOINT LeftForeArmEnd
									{
										OFFSET 0.000000 0.000000 0.000000
										CHANNELS 3 Zrotation Yrotation Xrotation
										End Site
										{
											OFFSET 0.000000 0.000000 0.000000
										}
									}
								}
								JOINT LeftArmEnd
								{
									OFFSET 0.000000 0.000000 0.000000
									CHANNELS 3 Zrotation Yrotation Xrotation
									End Site
									{
										OFFSET 0.000000 0.000000 0.000000
									}
								}
							}
						}
					}
				}
			}
		}
	}
	JOINT RightUpLeg
	{
		OFFSET -11.289943 0.000000 0.000000
		CHANNELS 3 Zrotation Yrotation Xrotation
		JOINT RightLeg
		{
			OFFSET 0.000000 -38.200325 0.000000
			CHANNELS 3 Zrotation Yrotation Xrotation
			JOINT RightFoot
			{
				OFFSET -0.000000 -39.900856 -0.000000
				CHANNELS 3 Zrotation Yrotation Xrotation
				JOINT RightToeBase
				{
					OFFSET 0.000000 0.000000 15.261641
					CHANNELS 3 Zrotation Yrotation Xrotation
					JOINT RightToeBaseEnd
					{
						OFFSET 0.000000 0.000000 7.370709
						CHANNELS 3 Zrotation Yrotation Xrotation
						End Site
						{
							OFFSET 0.000000 0.000000 0.000000
						}
					}
				}
				JOINT RightLegEnd
				{
					OFFSET 0.000000 0.000000 0.000000
					CHANNELS 3 Zrotation Yrotation Xrotation
					End Site
					{
						OFFSET 0.000000 0.000000 0.000000
					}
				}
			}
			JOINT RightUpLegEnd
			{
				OFFSET 0.000000 0.000000 0.000000
				CHANNELS 3 Zrotation Yrotation Xrotation
				End Site
				{
					OFFSET 0.000000 0.000000 0.000000
				}
			}
		}
	}
	JOINT LeftUpLeg
	{
		OFFSET 11.315661 -0.000000 0.000000
		CHANNELS 3 Zrotation Yrotation Xrotation
		JOINT LeftLeg
		{
			OFFSET -0.000000 -38.200325 -0.000000
			CHANNELS 3 Zrotation Yrotation Xrotation
			JOINT LeftFoot
			{
				OFFSET 0.000000 -39.900856 -0.000000
				CHANNELS 3 Zrotation Yrotation Xrotation
				JOINT LeftToeBase
				{
					OFFSET -0.000000 -0.000000 15.261641
					CHANNELS 3 Zrotation Yrotation Xrotation
					JOINT LeftToeBaseEnd
					{
						OFFSET 0.000000 -0.000000 7.539996
						CHANNELS 3 Zrotation Yrotation Xrotation
						End Site
						{
							OFFSET 0.000000 0.000000 0.000000
						}
					}
				}
				JOINT LeftLegEnd
				{
					OFFSET 0.000000 0.000000 0.000000
					CHANNELS 3 Zrotation Yrotation Xrotation
					End Site
					{
						OFFSET 0.000000 0.000000 0.000000
					}
				}
			}
			JOINT LeftUpLegEnd
			{
				OFFSET 0.000000 0.000000 0.000000
				CHANNELS 3 Zrotation Yrotation Xrotation
				End Site
				{
					OFFSET 0.000000 0.000000 0.000000
				}
			}
		}
	}
}
MOTION
Frames: 4
Frame Time: 0.016667
0.549577 88.922997 3.245220 -0.025286 -1.868773 -10.843001 1.078116 0.171648 6.830982 -1.178231 0.268834 2.307967 0.045857 -0.194189 4.747642 -1.652555 0.320873 4.387519 0.294779 0.267326 4.543048 0.041613 -0.101048 -3.476397 -0.385175 -1.071726 -20.599028 0.000000 0.000000 0.000000 91.531059 -0.182391 9.433464 66.524521 -23.579412 0.863160 -0.588037 19.326014 59.349285 2.398966 8.126466 -4.117557 19.631779 30.163340 62.201683 -8.261409 -11.795617 -19.949408 -6.139943 -7.756847 -13.778473 0.000000 0.000000 0.000000 11.335696 -10.734345 4.189827 9.399731 0.278823 1.482099 9.170881 -0.145760 1.446018 0.000000 0.000000 0.000000 11.187610 -5.375381 1.757140 8.298151 0.417764 0.582162 8.972037 -0.069573 0.490134 0.000000 0.000000 0.000000 12.608005 2.236578 -0.867232 9.381350 -0.876195 -0.868180 9.565364 0.076892 -0.624183 0.000000 0.000000 0.000000 11.724952 10.780820 -4.344738 9.461918 -1.586207 -2.408392 9.426532 0.322114 -2.023329 0.000000 0.000000 0.000000 0.000000 0.000000 0.000000 0.000000 0.000000 0.000000 -87.946243 0.143724 4.122025 -73.774834 9.617376 -9.677259 -0.514795 -16.573112 74.309418 -8.861645 -12.518009 -8.569902 -19.482073 -30.230204 62.303917 8.111553 11.571566 -19.534689 6.028572 7.771503 -13.670888 0.000000 0.000000 0.000000 -14.448216 -6.138003 6.582944 -9.877256 0.438085 -0.704515 -9.817796 -0.041383 -0.715958 0.000000 0.000000 0.000000 -13.932784 -0.968901 3.065386 -10.109332 0.469313 -0.371391 -10.251260 -0.026633 -0.303422 0.000000 0.000000 0.000000 -17.577908 7.313498 -1.227388 -12.460951 -0.923130 0.657384 -12.594175 0.044091 0.503581 0.000000 0.000000 0.000000 -21.141222 15.975016 -6.230185 -14.062488 -1.663635 2.336397 -13.819675 0.305320 2.040354 0.000000 0.000000 0.000000 0.000000 0.000000 0.000000 0.000000 0.000000 0.000000 -1.660377 -8.799293 14.586061 -0.068135 -0.685870 5.204298 -2.109321 -6.771309 18.084923 -0.894812 0.866180 -18.830196 0.000000 0.000000 0.000000 0.000000 0.000000 0.000000 0.000000 0.000000 0.000000 -1.784519 -5.849944 9.472312 0.070433 0.342651 10.649403 4.040365 -0.761716 16.973473 0.260572 -0.367714 -21.524626 0.000000 0.000000 0.000000 0.000000 0.000000 0.000000 0.000000 0.000000 0.000000 
0.555356 88.929672 3.235513 -0.000972 -1.836112 -10.856003 1.077521 0.182873 6.795241 -1.194982 0.281526 2.332941 0.047541 -0.121220 4.749073 -1.691354 0.355677 4.460571 0.204717 0.222301 4.840566 -0.000584 -0.212585 -3.359689 -0.358378 -1.062774 -20.732357 0.000000 0.000000 0.000000 91.471207 -0.178440 9.333704 66.470665 -23.047050 0.619979 -0.628929 19.358253 61.081722 1.951903 8.409457 -3.967703 19.472923 30.210697 62.351974 -8.102982 -11.491893 -19.486025 -6.013848 -7.554405 -13.452044 0.000000 0.000000 0.000000 10.082443 -10.542737 4.910923 8.715579 0.302794 1.391612 8.473930 -0.123254 1.363193 0.000000 0.000000 0.000000 10.087231 -5.195968 2.212384 7.629585 0.427453 0.544410 8.311291 -0.061590 0.458185 0.000000 0.000000 0.000000 11.738682 2.400620 -0.776971 8.767034 -0.889704 -0.820077 8.960549 0.067094 -0.587919 0.000000 0.000000 0.000000 10.999160 10.934071 -4.611529 8.991312 -1.624314 -2.268995 8.953815 0.291878 -1.901011 0.000000 0.000000 0.000000 0.000000 0.000000 0.000000 0.000000 0.000000 0.000000 -87.907310 0.151579 3.974361 -73.628319 8.960945 -9.720269 -0.484415 -16.794172 75.910034 -9.740269 -12.935855 -7.926149 -19.288223 -30.288691 62.496010 7.917125 11.188583 -18.952711 5.869549 7.517797 -13.263027 0.000000 0.000000 0.000000 -13.119459 -6.403308 7.529591 -9.097044 0.460010 -0.611403 -9.053898 -0.021101 -0.636161 0.000000 0.000000 0.000000 -12.744161 -1.183953 3.702405 -9.378803 0.478541 -0.335837 -9.538474 -0.018744 -0.274349 0.000000 0.000000 0.000000 -16.703857 7.169484 -0.976010 -11.878225 -0.936162 0.619086 -12.019367 0.034735 0.473658 0.000000 0.000000 0.000000 -20.661285 15.893405 -6.381579 -13.698070 -1.692156 2.258428 -13.445865 0.282723 1.971935 0.000000 0.000000 0.000000 0.000000 0.000000 0.000000 0.000000 0.000000 0.000000 -1.690754 -8.785409 14.584202 -0.067796 -0.683455 5.195060 -2.110398 -6.752133 18.084751 -0.894540 0.861828 -18.846571 0.000000 0.000000 0.000000 0.000000 0.000000 0.000000 0.000000 0.000000 0.000000 -1.800711 -5.831160 9.450762 0.070666 0.342784 10.700190 4.059352 -0.768337 16.976347 0.258382 -0.367183 -21.537239 0.000000 0.000000 0.000000 0.000000 0.000000 0.000000 0.000000 0.000000 0.000000 
0.562914 88.934219 3.223957 0.023179 -1.807088 -10.874847 1.077317 0.193353 6.767089 -1.209783 0.293733 2.359174 0.045473 -0.051976 4.751351 -1.727645 0.388701 4.536375 0.122995 0.169232 5.155579 -0.039796 -0.320139 -3.229535 -0.330017 -1.053482 -20.867577 0.000000 0.000000 0.000000 91.419395 -0.177308 9.231372 66.402679 -22.501326 0.395155 -0.675369 19.346291 62.815464 1.464554 8.636361 -3.825670 19.269236 30.272749 62.545616 -7.895287 -11.103747 -18.891180 -5.849678 -7.296509 -13.034177 0.000000 0.000000 0.000000 8.467834 -10.290405 5.773116 7.845314 0.330771 1.285275 7.584915 -0.097058 1.265692 0.000000 0.000000 0.000000 8.645801 -4.956205 2.753922 6.771631 0.438607 0.500455 7.457957 -0.052424 0.421129 0.000000 0.000000 0.000000 10.527207 2.627221 -0.666612 7.945590 -0.905249 -0.764445 8.145763 0.055751 -0.545985 0.000000 0.000000 0.000000 9.952776 11.143866 -4.921312 8.327218 -1.667778 -2.108530 8.286215 0.257425 -1.760511 0.000000 0.000000 0.000000 0.000000 0.000000 0.000000 0.000000 0.000000 0.000000 -87.890373 0.164139 3.829623 -73.470787 8.341270 -9.723375 -0.448249 -16.961271 77.525864 -10.647160 -13.382057 -7.210455 -19.047913 -30.361921 62.733944 7.673394 10.715815 -18.229490 5.670969 7.204803 -12.758388 0.000000 0.000000 0.000000 -11.430823 -6.735916 8.650699 -8.095187 0.482227 -0.517566 -8.069983 -0.000540 -0.555502 0.000000 0.000000 0.000000 -11.216700 -1.462074 4.457081 -8.425828 0.488075 -0.299127 -8.603705 -0.010615 -0.244530 0.000000 0.000000 0.000000 -15.495870 6.970821 -0.675575 -11.064439 -0.949926 0.579424 -11.213611 0.025080 0.442469 0.000000 0.000000 0.000000 -19.882465 15.774133 -6.550313 -13.126929 -1.722987 2.177710 -12.865269 0.258892 1.900903 0.000000 0.000000 0.000000 0.000000 0.000000 0.000000 0.000000 0.000000 0.000000 -1.715749 -8.778094 14.596554 -0.067422 -0.681677 5.174297 -2.117631 -6.734652 18.076078 -0.892977 0.857283 -18.855804 0.000000 0.000000 0.000000 0.000000 0.000000 0.000000 0.000000 0.000000 0.000000 -1.816069 -5.813796 9.433085 0.070936 0.342472 10.750202 4.078126 -0.770186 16.978516 0.256330 -0.367530 -21.545639 0.000000 0.000000 0.000000 0.000000 0.000000 0.000000 0.000000 0.000000 0.000000 
0.572504 88.936073 3.210454 0.048168 -1.780573 -10.901485 1.076553 0.202946 6.746794 -1.222396 0.305601 2.388159 0.038131 0.010467 4.755644 -1.761395 0.418293 4.615448 0.059978 0.105605 5.480688 -0.073822 -0.420644 -3.089314 -0.300224 -1.044746 -21.006058 0.000000 0.000000 0.000000 91.376816 -0.179923 9.125665 66.326591 -21.939365 0.200203 -0.725767 19.302366 64.529419 0.952593 8.807654 -3.681302 19.025644 30.348434 62.778076 -7.641795 -10.641481 -18.178436 -5.650559 -6.989717 -12.534180 0.000000 0.000000 0.000000 6.528817 -9.979869 6.750409 6.829339 0.361436 1.167229 6.546203 -0.068369 1.157286 0.000000 0.000000 0.000000 6.891573 -4.659323 3.365216 5.764573 0.450671 0.452019 6.452024 -0.042470 0.380330 0.000000 0.000000 0.000000 8.985770 2.913260 -0.543088 6.951836 -0.922111 -0.703503 7.156661 0.043312 -0.499935 0.000000 0.000000 0.000000 8.588640 11.406841 -5.269659 7.494788 -1.714542 -1.933529 7.449991 0.220227 -1.607620 0.000000 0.000000 0.000000 0.000000 0.000000 0.000000 0.000000 0.000000 0.000000 -87.896950 0.180425 3.689707 -73.302216 7.774049 -9.673537 -0.404491 -17.072083 79.120308 -11.543505 -13.821571 -6.426620 -18.769726 -30.447811 63.009941 7.386686 10.170063 -17.389507 5.438651 6.843553 -12.173485 0.000000 0.000000 0.000000 -9.442676 -7.122868 9.915268 -6.937057 0.504121 -0.425642 -6.930095 0.019795 -0.476198 0.000000 0.000000 0.000000 -9.400108 -1.794169 5.311848 -7.310933 0.497593 -0.262278 -7.507498 -0.002439 -0.214753 0.000000 0.000000 0.000000 -13.980823 6.721242 -0.329577 -10.064604 -0.963888 0.539095 -10.222196 0.015346 0.410562 0.000000 0.000000 0.000000 -18.806688 15.618292 -6.724627 -12.375265 -1.755311 2.094215 -12.104256 0.234290 1.827466 0.000000 0.000000 0.000000 0.000000 0.000000 0.000000 0.000000 0.000000 0.000000 -1.736632 -8.776438 14.623084 -0.067047 -0.680601 5.143363 -2.130802 -6.717112 18.058132 -0.890391 0.852767 -18.857527 0.000000 0.000000 0.000000 0.000000 0.000000 0.000000 0.000000 0.000000 0.000000 -1.832892 -5.801398 9.421080 0.071258 0.341724 10.800838 4.094165 -0.768503 16.978704 0.254168 -0.368883 -21.549072 0.000000 0.000000 0.000000 0.000000 0.000000 0.000000 0.000000 0.000000 0.000000 
